<mxfile host="app.diagrams.net" modified="2021-01-31T22:09:16.122Z" agent="5.0 (Macintosh; Intel Mac OS X 10_15_2) AppleWebKit/537.36 (KHTML, like Gecko) Chrome/87.0.4280.141 Safari/537.36" etag="F-19k6ETVl0XYHtsK2xQ" version="14.2.9" type="github">
  <diagram id="F0hlvu25ErE_IQJjwqdu" name="Page-1">
    <mxGraphModel dx="946" dy="614" grid="1" gridSize="10" guides="1" tooltips="1" connect="1" arrows="1" fold="1" page="1" pageScale="1" pageWidth="827" pageHeight="1169" math="0" shadow="0">
      <root>
        <mxCell id="0" />
        <mxCell id="1" parent="0" />
        <mxCell id="nOkizURCnm74HPiPfurn-7" style="edgeStyle=orthogonalEdgeStyle;rounded=0;orthogonalLoop=1;jettySize=auto;html=1;exitX=0.5;exitY=1;exitDx=0;exitDy=0;entryX=1;entryY=0.75;entryDx=0;entryDy=0;" edge="1" parent="1" source="nOkizURCnm74HPiPfurn-1" target="nOkizURCnm74HPiPfurn-5">
          <mxGeometry relative="1" as="geometry" />
        </mxCell>
        <mxCell id="nOkizURCnm74HPiPfurn-8" style="edgeStyle=orthogonalEdgeStyle;rounded=0;orthogonalLoop=1;jettySize=auto;html=1;exitX=0.75;exitY=1;exitDx=0;exitDy=0;entryX=0;entryY=0.75;entryDx=0;entryDy=0;" edge="1" parent="1" source="nOkizURCnm74HPiPfurn-1" target="nOkizURCnm74HPiPfurn-4">
          <mxGeometry relative="1" as="geometry" />
        </mxCell>
        <mxCell id="nOkizURCnm74HPiPfurn-13" style="edgeStyle=orthogonalEdgeStyle;rounded=0;orthogonalLoop=1;jettySize=auto;html=1;exitX=1;exitY=0.25;exitDx=0;exitDy=0;entryX=0.25;entryY=1;entryDx=0;entryDy=0;" edge="1" parent="1" source="nOkizURCnm74HPiPfurn-1" target="nOkizURCnm74HPiPfurn-2">
          <mxGeometry relative="1" as="geometry" />
        </mxCell>
        <mxCell id="nOkizURCnm74HPiPfurn-16" style="edgeStyle=orthogonalEdgeStyle;rounded=0;orthogonalLoop=1;jettySize=auto;html=1;exitX=0;exitY=0.25;exitDx=0;exitDy=0;entryX=0.5;entryY=1;entryDx=0;entryDy=0;" edge="1" parent="1" source="nOkizURCnm74HPiPfurn-1" target="nOkizURCnm74HPiPfurn-3">
          <mxGeometry relative="1" as="geometry" />
        </mxCell>
        <mxCell id="nOkizURCnm74HPiPfurn-17" style="edgeStyle=orthogonalEdgeStyle;rounded=0;orthogonalLoop=1;jettySize=auto;html=1;exitX=0;exitY=0.5;exitDx=0;exitDy=0;entryX=0.25;entryY=1;entryDx=0;entryDy=0;" edge="1" parent="1" source="nOkizURCnm74HPiPfurn-1" target="nOkizURCnm74HPiPfurn-3">
          <mxGeometry relative="1" as="geometry" />
        </mxCell>
        <mxCell id="nOkizURCnm74HPiPfurn-1" value="WEB-приложение" style="rounded=0;whiteSpace=wrap;html=1;" vertex="1" parent="1">
          <mxGeometry x="350" y="290" width="120" height="60" as="geometry" />
        </mxCell>
        <mxCell id="nOkizURCnm74HPiPfurn-15" style="edgeStyle=orthogonalEdgeStyle;rounded=0;orthogonalLoop=1;jettySize=auto;html=1;exitX=0.5;exitY=1;exitDx=0;exitDy=0;entryX=1;entryY=0.5;entryDx=0;entryDy=0;" edge="1" parent="1" source="nOkizURCnm74HPiPfurn-2" target="nOkizURCnm74HPiPfurn-1">
          <mxGeometry relative="1" as="geometry" />
        </mxCell>
        <mxCell id="nOkizURCnm74HPiPfurn-2" value="WEB-интерфейс" style="rounded=0;whiteSpace=wrap;html=1;" vertex="1" parent="1">
          <mxGeometry x="520" y="130" width="120" height="60" as="geometry" />
        </mxCell>
        <mxCell id="nOkizURCnm74HPiPfurn-3" value="Мобилка" style="rounded=0;whiteSpace=wrap;html=1;" vertex="1" parent="1">
          <mxGeometry x="190" y="130" width="120" height="60" as="geometry" />
        </mxCell>
        <mxCell id="nOkizURCnm74HPiPfurn-9" style="edgeStyle=orthogonalEdgeStyle;rounded=0;orthogonalLoop=1;jettySize=auto;html=1;exitX=0;exitY=0.5;exitDx=0;exitDy=0;entryX=0.875;entryY=1.033;entryDx=0;entryDy=0;entryPerimeter=0;" edge="1" parent="1" source="nOkizURCnm74HPiPfurn-4" target="nOkizURCnm74HPiPfurn-1">
          <mxGeometry relative="1" as="geometry" />
        </mxCell>
        <mxCell id="nOkizURCnm74HPiPfurn-4" value="Telegram" style="rounded=0;whiteSpace=wrap;html=1;" vertex="1" parent="1">
          <mxGeometry x="520" y="450" width="120" height="60" as="geometry" />
        </mxCell>
        <mxCell id="nOkizURCnm74HPiPfurn-12" style="edgeStyle=orthogonalEdgeStyle;rounded=0;orthogonalLoop=1;jettySize=auto;html=1;exitX=1;exitY=0.5;exitDx=0;exitDy=0;entryX=0.408;entryY=1.033;entryDx=0;entryDy=0;entryPerimeter=0;" edge="1" parent="1" source="nOkizURCnm74HPiPfurn-5" target="nOkizURCnm74HPiPfurn-1">
          <mxGeometry relative="1" as="geometry" />
        </mxCell>
        <mxCell id="nOkizURCnm74HPiPfurn-5" value="&amp;nbsp;БД" style="rounded=0;whiteSpace=wrap;html=1;" vertex="1" parent="1">
          <mxGeometry x="190" y="450" width="120" height="60" as="geometry" />
        </mxCell>
      </root>
    </mxGraphModel>
  </diagram>
</mxfile>
